<svg width="128" height="128" viewBox="0 0 128 128" fill="none" xmlns="http://www.w3.org/2000/svg">
<path d="M39.5361 74.3041H53.4261V66.518C52.4053 65.9858 51.4233 65.3822 50.4875 64.7116C49.2523 63.635 48.1418 62.4232 47.1767 61.099C44.47 57.4743 43.0114 53.0699 43.0194 48.5462V39.5522C45.5846 40.0516 48.1923 40.3008 50.8056 40.2963C60.0368 40.2963 68.0225 37.2929 71.8671 32.9307C73.4007 34.5966 75.2381 35.9545 77.2807 36.9317C79.721 38.1327 82.3104 39.0031 84.9806 39.5199V48.5462C84.979 51.6125 84.3079 54.6414 83.0143 57.4215C81.7207 60.2015 79.8357 62.6656 77.491 64.6415C77.3236 64.7864 77.1451 64.918 76.9572 65.0352L74.6925 66.5126V74.3041H88.4747C88.6796 74.3041 88.8791 74.2933 89.0894 74.2771H97.749V36.4948C97.749 32.0628 96.8761 27.6742 95.18 23.5796C93.484 19.485 90.998 15.7645 87.8642 12.6307C84.7303 9.49678 81.0098 7.01085 76.9152 5.3148C72.8206 3.61875 68.432 2.74581 64 2.74581H63.9999C55.0491 2.74581 46.4649 6.3015 40.1358 12.6307C33.8066 18.9598 30.2509 27.544 30.2509 36.4948V74.2772H38.9106C39.121 74.2934 39.3312 74.3041 39.5361 74.3041Z" fill="#2D3E50"/>
<path d="M122.047 122.355C121.015 116.649 118.767 104.366 118.249 102.816C115.346 94.1307 107.58 90.5449 99.6614 87.4731C95.6059 85.895 91.5449 84.3196 87.4786 82.7469C87.4064 82.7228 87.3381 82.6947 87.2658 82.6666C87.2417 82.6586 87.2136 82.6465 87.1895 82.6385L73.9145 84.6583L73.6897 85.8629C73.4321 87.0274 73.0203 88.1523 72.465 89.2077C71.7496 90.5895 70.9109 91.9038 69.9593 93.1348C68.9485 94.4598 67.8484 95.7142 66.6667 96.8892C65.819 97.7366 64.9291 98.5407 64.0005 99.2985C63.0709 98.5417 62.181 97.7376 61.3342 96.8892C60.1523 95.7132 59.0509 94.4589 58.0376 93.1348C57.0878 91.9011 56.2493 90.5856 55.5319 89.2037C54.9772 88.1498 54.5666 87.0262 54.3113 85.8629L54.0824 84.6583L40.8275 82.6385C40.7954 82.6465 40.7633 82.6626 40.7351 82.6706C40.6629 82.6987 40.5946 82.7269 40.5223 82.751C36.4627 84.329 32.4018 85.903 28.3395 87.4731C20.4251 90.5449 12.6593 94.1307 9.75216 102.816C9.23416 104.366 6.98551 116.649 5.95355 122.355C5.88909 122.71 5.90332 123.074 5.99526 123.422C6.0872 123.771 6.25458 124.095 6.48558 124.371C6.71657 124.648 7.00553 124.87 7.332 125.023C7.65847 125.175 8.01448 125.254 8.37483 125.254H119.626C119.986 125.254 120.342 125.175 120.668 125.022C120.995 124.87 121.284 124.647 121.514 124.371C121.745 124.094 121.913 123.77 122.005 123.422C122.097 123.074 122.111 122.709 122.047 122.355V122.355ZM50.0549 111.505C49.1434 110.02 48.3042 108.478 47.5092 106.839C46.4579 104.675 45.5589 102.44 44.8188 100.15C44.0491 97.8098 43.5046 95.4016 43.1926 92.9581L43.0842 91.9824C43.0641 91.7736 43.056 91.5568 43.044 91.3439L43.0199 90.8339C43.0079 90.5809 42.9958 90.332 42.9878 90.079L43.0079 89.043V89.011C43.0256 88.3662 43.0779 87.7228 43.1645 87.0836L43.1765 86.9711C43.1885 86.8346 43.2127 86.678 43.2408 86.5094L51.2074 87.722C51.5295 88.7754 51.9447 89.798 52.4481 90.7777C53.2594 92.3418 54.2081 93.8307 55.283 95.2269C56.3895 96.6796 57.5943 98.0547 58.8889 99.3427C59.6839 100.134 60.4896 100.875 61.3061 101.567L50.0549 111.505ZM84.981 90.842L84.957 91.3439C84.9449 91.5608 84.9369 91.7736 84.9168 91.9623L84.8084 92.9421C84.4981 95.3894 83.9549 97.8016 83.1861 100.146C82.4412 102.436 81.541 104.672 80.4918 106.839C79.6967 108.478 78.8575 110.02 77.946 111.505L66.6948 101.567C67.5099 100.877 68.3157 100.135 69.1121 99.3427C70.4067 98.0547 71.6114 96.6796 72.718 95.2269C73.7907 93.8315 74.738 92.344 75.5488 90.7818C76.055 89.8019 76.4703 88.7777 76.7896 87.722L84.7562 86.5093C84.7873 86.6619 84.8101 86.8161 84.8244 86.9711L84.8365 87.0876C84.923 87.7254 84.9753 88.3675 84.9931 89.011L85.0132 90.079C85.0051 90.3361 84.9931 90.589 84.981 90.842Z" fill="#2D3E50"/>
</svg>
