<svg width="128" height="128" viewBox="0 0 128 128" fill="none" xmlns="http://www.w3.org/2000/svg">
<g clip-path="url(#clip0_15_277)">
<path d="M42.6667 85.3333C30.4805 91.2 18.2789 97.0668 6.10135 103.467C1.32705 106.133 -0.454919 112 1.38601e-05 117.333C0.222222 120.533 -0.9658 124.8 2.35143 126.933C5.50295 128.533 9.19783 127.467 12.6192 128H123.211C127.312 127.467 128.4 123.2 128 120C128.075 114.667 128.363 109.333 124.491 105.6C121.339 102.4 116.838 100.8 112.987 98.6667C103.771 94.4 94.5498 89.6 85.3338 85.3333H42.6672H42.6667Z" fill="#2C3E50"/>
<path d="M42.6667 85.3333H85.3334L74.6667 128H53.3334L42.6667 85.3333Z" fill="#BDC3C7"/>
<path d="M53.3334 96V112L58.6667 117.333L53.3334 128H74.6667L69.3334 117.333L74.6667 112V96H53.3334Z" fill="#2C3E50"/>
<path d="M80 69.3333H48V96H80V69.3333Z" fill="#95A5A6"/>
<path d="M42.6667 85.3333L48 80L64 96L80 80L85.3334 85.3333L74.6667 112L64 96L53.3334 112L42.6667 85.3333Z" fill="#ECF0F1"/>
<path d="M64 0C48.1995 0 35.104 14.3461 32.5003 33.1669C31.8949 33.0016 31.2197 32.8197 30.6667 33C27.8661 33.912 27.176 39.232 29 44.8331C30.0704 48.12 31.8512 50.7077 33.6667 52.1664C37.8069 68.2613 49.7467 80 64 80C78.2507 80 90.192 68.2613 94.336 52.1664C96.1493 50.7072 97.9307 48.1195 98.9974 44.8331C100.821 39.232 100.133 33.912 97.3334 33C96.7787 32.8197 96.1067 33.0016 95.4987 33.1669C92.896 14.3456 79.8027 0 64 0V0Z" fill="#BDC3C7"/>
<path d="M42.6667 85.3333L32 90.6667V106.667H42.6667L32 112L42.6667 128H53.3333L42.6667 85.3333ZM85.3333 85.3333L74.6667 128H85.3333L96 112L85.3333 106.667H96V90.6667L85.3333 85.3333Z" fill="#34495E"/>
<path d="M64 0.000175087C53.1045 -0.533158 42.9936 6.93325 37.4395 17.0666C34.6117 21.8666 32.7253 27.7332 31.8939 33.0666C33.6773 32.5332 35.0949 33.6003 36.7099 31.467C40.0645 28.267 41.5547 25.6002 42.7728 21.3335C44.8533 16.5335 49.4032 9.06684 53.44 10.6668C57.136 11.7335 58.7733 13.8667 64.1067 13.8667C69.44 13.8667 71.0773 11.7335 74.7733 10.6668C78.8107 9.06684 83.36 16.5335 85.44 21.3335C86.656 25.6002 87.936 28.267 91.2907 31.467C92.9067 33.6003 94.32 32.5332 96.1067 33.0666C95.2747 27.7332 93.3867 21.8666 90.56 17.0666C85.008 6.93325 74.896 -0.533158 64 0.000175087Z" fill="#34495E"/>
</g>
<defs>
<clipPath id="clip0_15_277">
<rect width="128" height="128" fill="white"/>
</clipPath>
</defs>
</svg>
